<mxfile host="app.diagrams.net" modified="2021-06-30T13:04:51.020Z" agent="5.0 (Windows NT 10.0; Win64; x64) AppleWebKit/537.36 (KHTML, like Gecko) Chrome/91.0.4472.114 Safari/537.36" etag="LBcKtS7jVpkJDNiGtpUG" version="14.8.2" type="github">
  <diagram id="2HMSisfOvKkwV4gE6byU" name="Page-1">
    <mxGraphModel dx="1422" dy="794" grid="1" gridSize="10" guides="1" tooltips="1" connect="1" arrows="1" fold="1" page="1" pageScale="1" pageWidth="850" pageHeight="1100" math="0" shadow="0">
      <root>
        <mxCell id="0" />
        <mxCell id="1" parent="0" />
        <mxCell id="gDZj_yLQrz5pEpOFzoNd-23" value="" style="whiteSpace=wrap;html=1;aspect=fixed;strokeColor=#FF3333;fillColor=#FF3333;" parent="1" vertex="1">
          <mxGeometry x="422.5" y="500" width="175" height="175" as="geometry" />
        </mxCell>
        <mxCell id="gDZj_yLQrz5pEpOFzoNd-2" value="" style="endArrow=classic;html=1;exitX=0.5;exitY=1;exitDx=0;exitDy=0;" parent="1" source="gDZj_yLQrz5pEpOFzoNd-10" edge="1">
          <mxGeometry width="50" height="50" relative="1" as="geometry">
            <mxPoint x="310" y="240" as="sourcePoint" />
            <mxPoint x="310" y="320" as="targetPoint" />
          </mxGeometry>
        </mxCell>
        <mxCell id="gDZj_yLQrz5pEpOFzoNd-3" value="User logs in" style="rounded=0;whiteSpace=wrap;html=1;" parent="1" vertex="1">
          <mxGeometry x="250" y="300" width="120" height="60" as="geometry" />
        </mxCell>
        <mxCell id="gDZj_yLQrz5pEpOFzoNd-5" value="Checks Oracle for User details" style="rounded=0;whiteSpace=wrap;html=1;" parent="1" vertex="1">
          <mxGeometry x="250" y="450" width="120" height="60" as="geometry" />
        </mxCell>
        <mxCell id="gDZj_yLQrz5pEpOFzoNd-6" value="User passes check???" style="rhombus;whiteSpace=wrap;html=1;" parent="1" vertex="1">
          <mxGeometry x="270" y="550" width="80" height="80" as="geometry" />
        </mxCell>
        <mxCell id="gDZj_yLQrz5pEpOFzoNd-7" value="FALSE" style="endArrow=classic;html=1;exitX=0;exitY=0.5;exitDx=0;exitDy=0;entryX=0;entryY=0.5;entryDx=0;entryDy=0;edgeStyle=orthogonalEdgeStyle;" parent="1" source="gDZj_yLQrz5pEpOFzoNd-6" target="gDZj_yLQrz5pEpOFzoNd-10" edge="1">
          <mxGeometry width="50" height="50" relative="1" as="geometry">
            <mxPoint x="150" y="610" as="sourcePoint" />
            <mxPoint x="270" y="200" as="targetPoint" />
            <Array as="points">
              <mxPoint x="90" y="590" />
              <mxPoint x="90" y="190" />
            </Array>
          </mxGeometry>
        </mxCell>
        <mxCell id="gDZj_yLQrz5pEpOFzoNd-8" value="START" style="ellipse;whiteSpace=wrap;html=1;aspect=fixed;" parent="1" vertex="1">
          <mxGeometry x="270" y="40" width="80" height="80" as="geometry" />
        </mxCell>
        <mxCell id="gDZj_yLQrz5pEpOFzoNd-9" value="" style="endArrow=classic;html=1;exitX=0.5;exitY=1;exitDx=0;exitDy=0;entryX=0.5;entryY=0;entryDx=0;entryDy=0;" parent="1" source="gDZj_yLQrz5pEpOFzoNd-8" edge="1">
          <mxGeometry width="50" height="50" relative="1" as="geometry">
            <mxPoint x="140" y="260" as="sourcePoint" />
            <mxPoint x="310" y="160" as="targetPoint" />
          </mxGeometry>
        </mxCell>
        <mxCell id="gDZj_yLQrz5pEpOFzoNd-10" value="&lt;span&gt;Nexus login page&lt;/span&gt;" style="shape=parallelogram;perimeter=parallelogramPerimeter;whiteSpace=wrap;html=1;fixedSize=1;" parent="1" vertex="1">
          <mxGeometry x="250" y="160" width="120" height="60" as="geometry" />
        </mxCell>
        <mxCell id="gDZj_yLQrz5pEpOFzoNd-11" value="" style="endArrow=classic;html=1;exitX=0.5;exitY=1;exitDx=0;exitDy=0;entryX=0.5;entryY=0;entryDx=0;entryDy=0;" parent="1" source="gDZj_yLQrz5pEpOFzoNd-3" target="gDZj_yLQrz5pEpOFzoNd-5" edge="1">
          <mxGeometry width="50" height="50" relative="1" as="geometry">
            <mxPoint x="160" y="310" as="sourcePoint" />
            <mxPoint x="210" y="260" as="targetPoint" />
          </mxGeometry>
        </mxCell>
        <mxCell id="gDZj_yLQrz5pEpOFzoNd-12" value="" style="endArrow=classic;html=1;exitX=0.5;exitY=1;exitDx=0;exitDy=0;entryX=0.5;entryY=0;entryDx=0;entryDy=0;" parent="1" source="gDZj_yLQrz5pEpOFzoNd-5" target="gDZj_yLQrz5pEpOFzoNd-6" edge="1">
          <mxGeometry width="50" height="50" relative="1" as="geometry">
            <mxPoint x="180" y="390" as="sourcePoint" />
            <mxPoint x="230" y="340" as="targetPoint" />
          </mxGeometry>
        </mxCell>
        <mxCell id="gDZj_yLQrz5pEpOFzoNd-13" value="Checks Nexus IF User Profile is active or not" style="rounded=0;whiteSpace=wrap;html=1;" parent="1" vertex="1">
          <mxGeometry x="450" y="560" width="120" height="60" as="geometry" />
        </mxCell>
        <mxCell id="gDZj_yLQrz5pEpOFzoNd-14" value="TRUE" style="endArrow=classic;html=1;exitX=1;exitY=0.5;exitDx=0;exitDy=0;entryX=0;entryY=0.5;entryDx=0;entryDy=0;" parent="1" source="gDZj_yLQrz5pEpOFzoNd-6" target="gDZj_yLQrz5pEpOFzoNd-13" edge="1">
          <mxGeometry width="50" height="50" relative="1" as="geometry">
            <mxPoint x="380" y="710" as="sourcePoint" />
            <mxPoint x="430" y="660" as="targetPoint" />
          </mxGeometry>
        </mxCell>
        <mxCell id="gDZj_yLQrz5pEpOFzoNd-15" value="Active or not?" style="rhombus;whiteSpace=wrap;html=1;" parent="1" vertex="1">
          <mxGeometry x="630" y="550" width="80" height="80" as="geometry" />
        </mxCell>
        <mxCell id="gDZj_yLQrz5pEpOFzoNd-16" value="" style="endArrow=classic;html=1;exitX=1;exitY=0.5;exitDx=0;exitDy=0;entryX=0;entryY=0.5;entryDx=0;entryDy=0;" parent="1" source="gDZj_yLQrz5pEpOFzoNd-13" target="gDZj_yLQrz5pEpOFzoNd-15" edge="1">
          <mxGeometry width="50" height="50" relative="1" as="geometry">
            <mxPoint x="540" y="500" as="sourcePoint" />
            <mxPoint x="590" y="450" as="targetPoint" />
          </mxGeometry>
        </mxCell>
        <mxCell id="gDZj_yLQrz5pEpOFzoNd-17" value="" style="endArrow=classic;html=1;exitX=0.5;exitY=0;exitDx=0;exitDy=0;entryX=1;entryY=0.5;entryDx=0;entryDy=0;edgeStyle=orthogonalEdgeStyle;" parent="1" source="gDZj_yLQrz5pEpOFzoNd-15" target="gDZj_yLQrz5pEpOFzoNd-10" edge="1">
          <mxGeometry width="50" height="50" relative="1" as="geometry">
            <mxPoint x="660" y="430" as="sourcePoint" />
            <mxPoint x="710" y="380" as="targetPoint" />
            <Array as="points">
              <mxPoint x="670" y="190" />
            </Array>
          </mxGeometry>
        </mxCell>
        <mxCell id="gDZj_yLQrz5pEpOFzoNd-18" value="INACTIVE" style="edgeLabel;html=1;align=center;verticalAlign=middle;resizable=0;points=[];" parent="gDZj_yLQrz5pEpOFzoNd-17" vertex="1" connectable="0">
          <mxGeometry x="-0.4328" y="-3" relative="1" as="geometry">
            <mxPoint as="offset" />
          </mxGeometry>
        </mxCell>
        <mxCell id="gDZj_yLQrz5pEpOFzoNd-19" value="ACTIVE" style="endArrow=classic;html=1;exitX=0.5;exitY=1;exitDx=0;exitDy=0;entryX=0.5;entryY=0;entryDx=0;entryDy=0;" parent="1" source="gDZj_yLQrz5pEpOFzoNd-15" target="gDZj_yLQrz5pEpOFzoNd-20" edge="1">
          <mxGeometry width="50" height="50" relative="1" as="geometry">
            <mxPoint x="580" y="730" as="sourcePoint" />
            <mxPoint x="670" y="710" as="targetPoint" />
          </mxGeometry>
        </mxCell>
        <mxCell id="gDZj_yLQrz5pEpOFzoNd-20" value="Authenticate user / PASS" style="rounded=0;whiteSpace=wrap;html=1;" parent="1" vertex="1">
          <mxGeometry x="610" y="720" width="120" height="60" as="geometry" />
        </mxCell>
        <mxCell id="gDZj_yLQrz5pEpOFzoNd-21" value="END" style="ellipse;whiteSpace=wrap;html=1;aspect=fixed;" parent="1" vertex="1">
          <mxGeometry x="425" y="710" width="80" height="80" as="geometry" />
        </mxCell>
        <mxCell id="gDZj_yLQrz5pEpOFzoNd-22" value="" style="endArrow=classic;html=1;exitX=0;exitY=0.5;exitDx=0;exitDy=0;entryX=1;entryY=0.5;entryDx=0;entryDy=0;" parent="1" source="gDZj_yLQrz5pEpOFzoNd-20" target="gDZj_yLQrz5pEpOFzoNd-21" edge="1">
          <mxGeometry width="50" height="50" relative="1" as="geometry">
            <mxPoint x="300" y="740" as="sourcePoint" />
            <mxPoint x="560" y="700" as="targetPoint" />
          </mxGeometry>
        </mxCell>
      </root>
    </mxGraphModel>
  </diagram>
</mxfile>
